<svg width="20" height="20" viewBox="0 0 20 20" fill="none" xmlns="http://www.w3.org/2000/svg">
<path d="M4.99984 16.6667H14.9998C15.4582 16.6667 15.8332 17.0417 15.8332 17.5C15.8332 17.9583 15.4582 18.3333 14.9998 18.3333H4.99984C4.5415 18.3333 4.1665 17.9583 4.1665 17.5C4.1665 17.0417 4.5415 16.6667 4.99984 16.6667ZM9.99984 5.83333C9.08317 5.83333 8.33317 6.58333 8.33317 7.5C8.33317 8.41666 9.08317 9.16666 9.99984 9.16666C10.9165 9.16666 11.6665 8.41666 11.6665 7.5C11.6665 6.58333 10.9165 5.83333 9.99984 5.83333ZM9.99984 1.66666C12.7248 1.66666 15.8332 3.71666 15.8332 7.625C15.8332 10.1083 14.0582 12.725 10.5082 15.45C10.2082 15.6833 9.7915 15.6833 9.4915 15.45C5.9415 12.7167 4.1665 10.1083 4.1665 7.625C4.1665 3.71666 7.27484 1.66666 9.99984 1.66666Z" fill="white"/>
</svg>
