<svg width="18" height="18" viewBox="0 0 18 18" fill="none" xmlns="http://www.w3.org/2000/svg">
<path fill-rule="evenodd" clip-rule="evenodd" d="M12.8675 10.7015C12.6546 10.5951 11.6111 10.0822 11.4168 10.0108C11.2225 9.94008 11.0811 9.90508 10.9389 10.1179C10.7975 10.3294 10.3911 10.8079 10.2675 10.9494C10.1432 11.0915 10.0196 11.1086 9.80749 11.0029C9.59535 10.8958 8.91106 10.6722 8.10035 9.94937C7.46964 9.38651 7.04321 8.69151 6.91964 8.47865C6.79607 8.26651 6.90607 8.15151 7.0125 8.0458C7.10821 7.9508 7.22464 7.79794 7.33107 7.67437C7.4375 7.55008 7.4725 7.46151 7.54321 7.31937C7.61464 7.17794 7.57892 7.05437 7.52535 6.94794C7.4725 6.84151 7.04821 5.79652 6.87107 5.37152C6.69893 4.95795 6.52393 5.01437 6.39393 5.00723C6.26964 5.00152 6.12821 5.00009 5.98678 5.00009C5.84536 5.00009 5.61536 5.05295 5.42107 5.2658C5.22607 5.47794 4.67822 5.99152 4.67822 7.03651C4.67822 8.0808 5.43821 9.09008 5.54464 9.23222C5.65107 9.37365 7.04107 11.5179 9.17035 12.4372C9.67749 12.6558 10.0725 12.7865 10.3803 12.8836C10.8889 13.0458 11.3518 13.0229 11.7175 12.9679C12.1246 12.9072 12.9732 12.4544 13.1503 11.9586C13.3268 11.4629 13.3268 11.0379 13.2739 10.9494C13.2211 10.8608 13.0796 10.8079 12.8668 10.7015H12.8675ZM8.99464 15.9894H8.99178C7.72709 15.9896 6.48562 15.6496 5.3975 15.0051L5.14036 14.8522L2.4675 15.5536L3.18107 12.9479L3.01322 12.6808C2.30617 11.5553 1.932 10.2528 1.93393 8.92365C1.93536 5.0308 5.1025 1.86367 8.99749 1.86367C10.8832 1.86367 12.6561 2.59938 13.9889 3.93366C14.6463 4.58836 15.1674 5.36692 15.522 6.2243C15.8765 7.08168 16.0576 8.00085 16.0546 8.92865C16.0532 12.8215 12.8861 15.9894 8.99464 15.9894ZM15.0032 2.92009C14.2162 2.1279 13.2798 1.49976 12.2483 1.0721C11.2167 0.644427 10.1106 0.425727 8.99392 0.428668C4.3125 0.428668 0.50108 4.23938 0.499651 8.92294C0.498937 10.4201 0.88965 11.8815 1.63322 13.1694L0.428223 17.5715L4.93107 16.3901C6.17669 17.0687 7.57256 17.4243 8.99106 17.4244H8.99464C13.6761 17.4244 17.4875 13.6136 17.4889 8.92937C17.4924 7.81314 17.2745 6.7073 16.8478 5.67583C16.4211 4.64435 15.7942 3.70771 15.0032 2.92009Z" fill="white"/>
</svg>
